<svg xmlns="http://www.w3.org/2000/svg" xmlns:xlink="http://www.w3.org/1999/xlink" viewBox="0 0 209.99 204.54" aria-hidden="true" width="209px" height="204px"><defs><linearGradient class="cerosgradient" data-cerosgradient="true" id="CerosGradient_idff79b2b57" gradientUnits="userSpaceOnUse" x1="50%" y1="100%" x2="50%" y2="0%"><stop offset="0%" stop-color="#d1d1d1"/><stop offset="100%" stop-color="#d1d1d1"/></linearGradient><linearGradient/><style>.cls-1-63347c2a6ed14{fill:none;}.cls-2-63347c2a6ed14{isolation:isolate;}.cls-3-63347c2a6ed14{clip-path:url(#clip-path63347c2a6ed14);}.cls-4-63347c2a6ed14{mix-blend-mode:multiply;}.cls-5-63347c2a6ed14{clip-path:url(#clip-path-363347c2a6ed14);}.cls-6-63347c2a6ed14{fill:#f7921e;}.cls-7-63347c2a6ed14{clip-path:url(#clip-path-463347c2a6ed14);}.cls-8-63347c2a6ed14{fill:#f9c606;}.cls-9-63347c2a6ed14{fill:#fff;}</style><clipPath id="clip-path63347c2a6ed14" transform="translate(0 0)"><rect class="cls-1-63347c2a6ed14" width="209.99" height="204.54"/></clipPath><clipPath id="clip-path-363347c2a6ed14" transform="translate(0 0)"><rect class="cls-1-63347c2a6ed14" x="-18" y="-14" width="230.74" height="210.74"/></clipPath><clipPath id="clip-path-463347c2a6ed14" transform="translate(0 0)"><rect class="cls-1-63347c2a6ed14" x="-2.75" y="-4.2" width="230.74" height="210.74"/></clipPath></defs><g class="cls-2-63347c2a6ed14"><g id="Layer_263347c2a6ed14" data-name="Layer 2"><g id="Layer_1-263347c2a6ed14" data-name="Layer 1"><g class="cls-3-63347c2a6ed14"><g class="cls-3-63347c2a6ed14"><g class="cls-4-63347c2a6ed14"><g class="cls-5-63347c2a6ed14"><path class="cls-6-63347c2a6ed14" d="M97.37,194.74A97.37,97.37,0,1,0,0,97.37a97.38,97.38,0,0,0,97.37,97.37" transform="translate(0 0)"/></g></g><g class="cls-4-63347c2a6ed14"><g class="cls-7-63347c2a6ed14"><path class="cls-8-63347c2a6ed14" d="M112.62,204.54a97.37,97.37,0,1,0-97.37-97.37,97.38,97.38,0,0,0,97.37,97.37" transform="translate(0 0)"/></g></g><path class="cls-9-63347c2a6ed14" d="M185.33,148.74V151a6.27,6.27,0,0,1-6.37,6.16H125.82a6.28,6.28,0,0,1-6.38-6.16v-2.21h65.89Zm-49.55-15.8,34.5,9.8a1.68,1.68,0,0,0,.5.07,1.85,1.85,0,0,0,1.41-.65l7.63-9.22H183a6.16,6.16,0,1,1,0,12.32H121.73a6.16,6.16,0,1,1,0-12.32Zm39.43,0-5.08,6.14-21.6-6.14Zm-55.69-3.48c1.14-13.61,15.41-24.18,32.87-24.18s31.73,10.57,32.87,24.18H119.52ZM193,139.1a9.53,9.53,0,0,0-4.12-7.77s0-.08,0-.13c0-16.21-16.39-29.4-36.54-29.4S115.85,115,115.85,131.2a.61.61,0,0,0,0,.13,9.38,9.38,0,0,0,0,15.53.7.7,0,0,0,0,.14V151a9.82,9.82,0,0,0,10,9.64H179a9.82,9.82,0,0,0,10-9.64V147a.7.7,0,0,0,0-.14A9.52,9.52,0,0,0,193,139.1" transform="translate(0 0)"/><path class="cls-9-63347c2a6ed14" d="M167.4,115.73a1.89,1.89,0,1,0-2-1.88,1.91,1.91,0,0,0,2,1.88" transform="translate(0 0)"/><path class="cls-9-63347c2a6ed14" d="M158.77,115.73a1.89,1.89,0,1,0-2-1.88,1.92,1.92,0,0,0,2,1.88" transform="translate(0 0)"/><path class="cls-9-63347c2a6ed14" d="M147.45,117.53a1.89,1.89,0,1,0-1.95-1.89,1.93,1.93,0,0,0,1.95,1.89" transform="translate(0 0)"/><path class="cls-9-63347c2a6ed14" d="M153.66,121.73a1.89,1.89,0,1,0-1.95-1.88,1.92,1.92,0,0,0,1.95,1.88" transform="translate(0 0)"/><path class="cls-9-63347c2a6ed14" d="M168.73,120.58a2,2,0,1,0,2-1.89,1.92,1.92,0,0,0-2,1.89" transform="translate(0 0)"/><path class="cls-9-63347c2a6ed14" d="M163,123a1.89,1.89,0,1,0-1.95-1.89A1.92,1.92,0,0,0,163,123" transform="translate(0 0)"/><path class="cls-9-63347c2a6ed14" d="M189.16,77.7l-36,5.22a9.53,9.53,0,0,0-6.84-6.45,9.85,9.85,0,0,0-7.31,1,8.92,8.92,0,0,0-4.7,8.18l-15.15,2.19,42.73-55.15c2.9,2,10.72,8,18.71,19.16,8.14,11.39,8.7,22.1,8.61,25.85M137.88,84a6.19,6.19,0,0,1,6-4.48,6.48,6.48,0,0,1,1.38.15l.15-.63v.67a6.11,6.11,0,0,1,4.19,3.59L137.7,85a6.06,6.06,0,0,1,.18-1M112.8,92.13h.1l79-11.42a.68.68,0,0,0,.57-.57l.1-.77c.07-.59,1.59-14.41-9.13-29.42s-20.66-20.72-21.08-21l-.81-.47a.69.69,0,0,0-.89.17L112.26,91.09a.63.63,0,0,0,0,.72.7.7,0,0,0,.58.32" transform="translate(0 0)"/><path class="cls-9-63347c2a6ed14" d="M177.06,55.34c-3.35-4.87-8.4-12.22-14.67-16.3a1.76,1.76,0,0,0-1.3-.26,1.73,1.73,0,0,0-1.11.71,1.64,1.64,0,0,0,.47,2.32c5.69,3.71,10.52,10.72,13.72,15.38l.61.88c3,4.37,5.55,16.41,5.66,16.93a1.71,1.71,0,0,0,1.3,1.3,1.74,1.74,0,0,0,.39,0,1.86,1.86,0,0,0,.34,0,1.68,1.68,0,0,0,1.36-2c-.46-2.2-2.91-13.41-6.17-18.12Z" transform="translate(0 0)"/><path class="cls-9-63347c2a6ed14" d="M159.18,48.16v.67A6.13,6.13,0,0,1,163,51.57a5.75,5.75,0,0,1,.66,4.52,6.3,6.3,0,0,1-7.51,4.29,5.89,5.89,0,0,1-1.6-10.91,6.29,6.29,0,0,1,3.13-.83,6.66,6.66,0,0,1,1.4.15ZM167,56.93a9,9,0,0,0-1-7.06,9.54,9.54,0,0,0-5.9-4.28,9.92,9.92,0,0,0-7.29,1,9.28,9.28,0,0,0-4.43,5.69,9,9,0,0,0,1,7,9.55,9.55,0,0,0,5.89,4.29l.22.05h0a9.77,9.77,0,0,0,2.15.24,9.64,9.64,0,0,0,9.35-7" transform="translate(0 0)"/><path class="cls-9-63347c2a6ed14" d="M168.64,69.12l5,2.35-.25.78-.7,1.58L167.3,72.5a.69.69,0,0,0-.8.4l-1.07,2.67a5.68,5.68,0,0,1-2.7-6.35l.18-.37a6,6,0,0,1,6.37-3.23l-1,2.7a.64.64,0,0,0,.34.8m3.75-2,1.17-3.2a.62.62,0,0,0,0-.5.72.72,0,0,0-.38-.33l-1-.34c-2.62-.9-8.31-1.32-11.58,3.28a.77.77,0,0,0-.26.07.63.63,0,0,0-.35.38l-.34,1c-.07.21-.13.4-.16.52l-.32.78a.55.55,0,0,0,0,.48c-.89,5.77,3.86,9.17,6.53,10.17l1,.37a.64.64,0,0,0,.24,0,.81.81,0,0,0,.27,0,.67.67,0,0,0,.36-.36l1.27-3.17,5.25,1.31a.69.69,0,0,0,.79-.37l.86-1.94h0a.6.6,0,0,0,.34-.39l1.52-4.68a.65.65,0,0,0-.34-.78Z" transform="translate(0 0)"/><path class="cls-9-63347c2a6ed14" d="M26.22,99.56a6.31,6.31,0,0,0,3.18-.87A5.94,5.94,0,0,0,32.2,95l.72-2.86,16.19-9.48A1.91,1.91,0,0,0,50,81.49,1.86,1.86,0,0,0,49.78,80a2,2,0,0,0-2.73-.65h0L30,89.38a2,2,0,0,0-.91,1.19,1.9,1.9,0,0,0,0,.75l-.71,2.78a2.06,2.06,0,0,1-1,1.29,2.18,2.18,0,0,1-1.64.25,2.16,2.16,0,0,1-1.34-1,2,2,0,0,1-.25-1.6l.57-2.23a1.86,1.86,0,0,0-.24-1.45,2,2,0,0,0-1.23-.88L20.9,88a2.1,2.1,0,0,1-1.6-2.54,2.17,2.17,0,0,1,2.63-1.54l2.88.68a2,2,0,0,0,2.21.1l17.08-10a1.9,1.9,0,0,0,.9-1.19A1.84,1.84,0,0,0,44.77,72,2,2,0,0,0,42,71.38L25.84,80.86l-2.95-.7a6.2,6.2,0,0,0-7.46,4.36A6,6,0,0,0,20,91.73l.37.09-.1.35a5.78,5.78,0,0,0,.72,4.51,6.1,6.1,0,0,0,3.8,2.7,6.24,6.24,0,0,0,1.48.18" transform="translate(0 0)"/><path class="cls-9-63347c2a6ed14" d="M53.61,75l-2.82-1,.39-2.88A1.91,1.91,0,0,0,49.77,69l-1.5-.42c3.51-5.93,16.61-27.43,24.32-31.94A22.26,22.26,0,0,1,89.05,34.2a21.55,21.55,0,0,1,13.42,9.53,20.66,20.66,0,0,1-7.34,28.89c-7.72,4.51-33.5,5.77-40.55,6l.3-1.48A1.91,1.91,0,0,0,53.61,75M90,30.46a26.31,26.31,0,0,0-19.47,2.88c-10.08,5.89-26.29,34.27-27,35.47a1.87,1.87,0,0,0-.1,1.66,2,2,0,0,0,1.28,1.12l2.28.65L46.63,75a1.92,1.92,0,0,0,1.29,2.06l2.72,1-.46,2.25a1.86,1.86,0,0,0,.42,1.61,2.07,2.07,0,0,0,1.06.64,2.5,2.5,0,0,0,.47,0h0c1.43,0,35-.79,45-6.66a24.44,24.44,0,0,0,8.68-34.18A25.53,25.53,0,0,0,90,30.46" transform="translate(0 0)"/><path class="cls-9-63347c2a6ed14" d="M75.14,43.33a2,2,0,0,0,.48.06,2.1,2.1,0,0,0,1-.28,2,2,0,0,0,.9-1.19,1.84,1.84,0,0,0-.23-1.46,2,2,0,0,0-2.74-.65,2,2,0,0,0-.9,1.19,1.84,1.84,0,0,0,.23,1.46,1.94,1.94,0,0,0,1.23.87" transform="translate(0 0)"/><path class="cls-9-63347c2a6ed14" d="M68,73.84a2,2,0,0,0,.48.06,2.07,2.07,0,0,0,1-.28A1.9,1.9,0,0,0,70.2,71a2,2,0,0,0-2.74-.65h0A1.9,1.9,0,0,0,66.79,73a2,2,0,0,0,1.23.87" transform="translate(0 0)"/><path class="cls-9-63347c2a6ed14" d="M75.19,49.6a2,2,0,0,0,1-.28,1.88,1.88,0,0,0,.67-2.64,2,2,0,0,0-1.23-.88,2,2,0,0,0-1.51.23,1.93,1.93,0,0,0-.9,1.19,1.81,1.81,0,0,0,.23,1.45,2,2,0,0,0,1.71.93" transform="translate(0 0)"/><path class="cls-9-63347c2a6ed14" d="M87.66,41.63a2,2,0,0,0,1-.28,1.9,1.9,0,0,0,.67-2.65,2,2,0,0,0-2.74-.65h0A1.9,1.9,0,0,0,86,40.7a2,2,0,0,0,1.71.93" transform="translate(0 0)"/><path class="cls-9-63347c2a6ed14" d="M80.41,112.43a34.71,34.71,0,0,1,4.22-.9,9.77,9.77,0,0,1,9.44,3.86c5.62,6.93,6.2,20.08,5,24.5L44.91,158.6c4.34-23,18.4-41.44,35.5-46.17m-17.84-.49c-7-1.29-9,5.32-9.71,7.81-.56,1.91-1,1.92-2.57,2a7.36,7.36,0,0,0-4.15,1.07c-2.32,1.55-2.45,3.81-2.56,5.64a6.54,6.54,0,0,1-.64,3.07c-.61,1.05-1.58,1.39-2.93,1.87a10.19,10.19,0,0,0-4.14,2.32c-3,3.07-2,5.4-1.26,7.09a4.41,4.41,0,0,1,.57,2.52l-.08.54c-.52,3.54-.81,4.33-2.61,4.73-2.81.63-4.59,3.62-4.88,6.25a6.27,6.27,0,0,0,1.12,4.44,7.26,7.26,0,0,1-3.38-7.06c5.8-38.67,28.68-45.7,36.25-45.13a11.9,11.9,0,0,1,4.92,1.48c-1.38,1.2-2.26,1.7-3.95,1.39m-21.5,47.51a16.3,16.3,0,0,1-2.8,1.83l-.26.06c-1.1.24-1.84.39-5.39-1.24a2.61,2.61,0,0,1-1.42-2.91c.18-1.66,1.26-3,2.1-3.22,4.39-1,4.86-4.21,5.37-7.64l.08-.53a7.63,7.63,0,0,0-.82-4.38c-.62-1.43-.83-1.91.56-3.32a6.75,6.75,0,0,1,2.76-1.46,8,8,0,0,0,4.83-3.42,9.85,9.85,0,0,0,1.11-4.6c.1-1.73.21-2.43,1-3a4.09,4.09,0,0,1,2.23-.46c1.84,0,4.63-.14,5.91-4.5,1.41-4.8,3.06-5.44,4.49-5.44a5.72,5.72,0,0,1,1.07.11c3.85.71,5.77-1.05,8-3.09.75-.67,1.6-1.44,2.62-2.22,1.88-1.42,2.54-1.2,4.06-.08C59,116.37,45.1,135.61,41.07,159.45m43-51.37c-1,.15-2.12.38-3.22.64-.52-.33-1-.69-1.51-1.07-2-1.52-4.76-3.61-9.07-.33-.38.29-.7.56-1,.84a15.32,15.32,0,0,0-7.39-2.57c-8.4-.59-33.92,6.9-40.1,48.11-.85,5.68,3.23,10.62,7.43,11.51a19.08,19.08,0,0,0,3.82.36,20.47,20.47,0,0,0,10.83-2.91l57.72-19.94a.65.65,0,0,0,.4-.36l.19-.45c2.06-4.86,1.23-20.66-5.26-28.67a13.35,13.35,0,0,0-12.81-5.16" transform="translate(0 0)"/></g></g></g></g></g></svg>