<?xml version="1.0" encoding="UTF-8" standalone="no"?>
<!-- Created with Inkscape (http://www.inkscape.org/) -->

<svg
   xmlns:dc="http://purl.org/dc/elements/1.1/"
   xmlns:cc="http://creativecommons.org/ns#"
   xmlns:rdf="http://www.w3.org/1999/02/22-rdf-syntax-ns#"
   xmlns:svg="http://www.w3.org/2000/svg"
   xmlns="http://www.w3.org/2000/svg"
   xmlns:xlink="http://www.w3.org/1999/xlink"
   xmlns:sodipodi="http://sodipodi.sourceforge.net/DTD/sodipodi-0.dtd"
   xmlns:inkscape="http://www.inkscape.org/namespaces/inkscape"
   width="1000.0001"
   height="1000"
   id="svg2"
   sodipodi:version="0.32"
   inkscape:version="0.48.2 r9819"
   version="1.0"
   sodipodi:docname="Good_Food.svg"
   inkscape:output_extension="org.inkscape.output.svg.inkscape">
  <defs
     id="defs4">
    <linearGradient
       id="linearGradient3362">
      <stop
         style="stop-color:#ffcc00;stop-opacity:1"
         offset="0"
         id="stop3364" />
      <stop
         id="stop3376"
         offset="0.81164956"
         style="stop-color:#ec6800;stop-opacity:1" />
      <stop
         style="stop-color:#ea4902;stop-opacity:1"
         offset="0.88873672"
         id="stop3378" />
      <stop
         id="stop3372"
         offset="0.91239935"
         style="stop-color:#e73900;stop-opacity:1" />
      <stop
         style="stop-color:#ff0000;stop-opacity:1"
         offset="1"
         id="stop3366" />
    </linearGradient>
    <inkscape:perspective
       sodipodi:type="inkscape:persp3d"
       inkscape:vp_x="0 : 526.18109 : 1"
       inkscape:vp_y="0 : 1000 : 0"
       inkscape:vp_z="744.09448 : 526.18109 : 1"
       inkscape:persp3d-origin="372.04724 : 350.78739 : 1"
       id="perspective10" />
    <inkscape:perspective
       id="perspective2390"
       inkscape:persp3d-origin="372.04724 : 350.78739 : 1"
       inkscape:vp_z="744.09448 : 526.18109 : 1"
       inkscape:vp_y="0 : 1000 : 0"
       inkscape:vp_x="0 : 526.18109 : 1"
       sodipodi:type="inkscape:persp3d" />
    <inkscape:perspective
       id="perspective2460"
       inkscape:persp3d-origin="372.04724 : 350.78739 : 1"
       inkscape:vp_z="744.09448 : 526.18109 : 1"
       inkscape:vp_y="0 : 1000 : 0"
       inkscape:vp_x="0 : 526.18109 : 1"
       sodipodi:type="inkscape:persp3d" />
    <inkscape:perspective
       id="perspective3356"
       inkscape:persp3d-origin="372.04724 : 350.78739 : 1"
       inkscape:vp_z="744.09448 : 526.18109 : 1"
       inkscape:vp_y="0 : 1000 : 0"
       inkscape:vp_x="0 : 526.18109 : 1"
       sodipodi:type="inkscape:persp3d" />
    <radialGradient
       inkscape:collect="always"
       xlink:href="#linearGradient3362"
       id="radialGradient3370"
       cx="172.95956"
       cy="325.04248"
       fx="172.95956"
       fy="325.04248"
       r="49.088585"
       gradientUnits="userSpaceOnUse"
       gradientTransform="matrix(-7.8318043,-16.433686,17.727628,-8.4484869,-3586.6387,5811.8673)" />
  </defs>
  <sodipodi:namedview
     id="base"
     pagecolor="#ffffff"
     bordercolor="#666666"
     borderopacity="1.0"
     gridtolerance="10000"
     guidetolerance="10"
     objecttolerance="10"
     inkscape:pageopacity="0.0"
     inkscape:pageshadow="2"
     inkscape:zoom="0.2653125"
     inkscape:cx="557.97977"
     inkscape:cy="620.40541"
     inkscape:document-units="px"
     inkscape:current-layer="layer1"
     showgrid="false"
     inkscape:window-width="1047"
     inkscape:window-height="1038"
     inkscape:window-x="859"
     inkscape:window-y="-21"
     fit-margin-left="0.5"
     fit-margin-bottom="0.5"
     fit-margin-top="0.5"
     fit-margin-right="0.5"
     inkscape:window-maximized="0">
    <inkscape:grid
       type="xygrid"
       id="grid2466"
       visible="true"
       enabled="true"
       empspacing="5"
       snapvisiblegridlinesonly="true" />
  </sodipodi:namedview>
  <metadata
     id="metadata7">
    <rdf:RDF>
      <cc:Work
         rdf:about="">
        <dc:format>image/svg+xml</dc:format>
        <dc:type
           rdf:resource="http://purl.org/dc/dcmitype/StillImage" />
      </cc:Work>
    </rdf:RDF>
  </metadata>
  <g
     inkscape:label="Layer 1"
     inkscape:groupmode="layer"
     id="layer1"
     transform="translate(-120.48415,659.30586)">
    <path
       style="fill:url(#radialGradient3370);fill-opacity:1;fill-rule:nonzero;stroke:none"
       d="m 1119.9842,-159.30591 c 0,275.72401 -223.77609,499.50005 -499.5,499.50005 -275.72401,0 -499.50005,-223.77604 -499.50005,-499.50005 0,-275.72401 223.77604,-499.49995 499.50005,-499.49995 115.10212,0 197.62819,41.26303 197.62819,41.26303 0,0 47.77824,104.24347 47.77824,104.24347 0,0 -95.55649,89.04128 -95.55649,89.04128 0,0 130.30432,-15.20219 130.30432,-15.20219 0,0 54.29345,119.44566 54.29345,119.44566 0,0 26.06095,-130.30431 26.06095,-130.30431 0,0 41.26304,-4.34354 41.26304,-4.34354 0,0 97.7283,115.10222 97.7283,295.35655 z"
       id="path2468"
       sodipodi:nodetypes="csssssccsssc"
       inkscape:connector-curvature="0" />
    <path
       style="fill:#ffffff;fill-rule:evenodd;stroke:none"
       d="m 320.78421,-0.76888377 67.32388,0 0,-125.96087623 89.04138,0 0,-54.29345 -89.04138,0 0,-65.15221 132.47608,0 0,-56.46522 -199.79996,0 0,301.87175623 z"
       id="path2471"
       sodipodi:nodetypes="ccccccccccc"
       inkscape:connector-curvature="0" />
    <path
       style="fill:#ffffff;fill-rule:evenodd;stroke:none"
       d="m 214.36897,-42.031918 c 0,-8.686981 6.51521,-13.030421 15.20219,-13.030421 l 0,-26.060842 c -17.37396,0 -36.91959,10.85865 -36.91959,39.091263 0,28.232613 19.54563,41.26303423 39.09136,41.26303423 l 43.43471,0 c 19.54573,0 39.09136,-10.85865023 39.09136,-41.26303423 0,-19.545631 -13.03042,-26.060842 -13.03042,-26.060842 l 10.85865,0 0,-13.030421 -60.80867,0 0,39.091263 19.54564,0 0,-13.030421 6.51521,0 c 8.68698,0 15.20219,4.34344 15.20219,13.030421 0,8.686982 -6.51521,15.202192 -15.20219,15.202192 l -47.77825,0 c -8.68698,0 -15.20219,-6.51521 -15.20219,-15.202192 z"
       id="path3243"
       sodipodi:nodetypes="ccccccccccccccccccc"
       inkscape:connector-curvature="0" />
    <path
       id="path3249"
       style="fill:#ffffff;fill-rule:evenodd;stroke:none"
       d="m 663.91901,-126.72976 c 0,-54.29345 -15.2022,-97.72826 -83.45159,-97.70482 -75.08534,-0.0234 -88.11576,43.41137 -88.11576,97.70482 l 0,30.404387 c 0,54.293455 13.03042,97.72826 88.11576,97.4381948 68.24939,0.2900652 83.45159,-43.1447398 83.45159,-97.4381948 l 0,-30.404387 z m -58.637,-4.34344 c 0,-33.51247 -4.79866,-49.81746 -26.40827,-49.80299 -23.77414,-0.0145 -27.88519,16.29052 -27.88519,49.80299 l 0,39.091267 c 0,33.512473 4.11105,50.502943 27.88519,50.323932 21.60961,0.179011 26.40827,-16.811459 26.40827,-50.323932 l 0,-39.091267 z"
       inkscape:connector-curvature="0" />
    <path
       d="m 845.04312,-126.72976 c 0,-54.29345 -15.20219,-97.72826 -83.45159,-97.70482 -75.08533,-0.0234 -88.11575,43.41137 -88.11575,97.70482 l 0,30.404387 c 0,54.293455 13.03042,97.72826 88.11575,97.4381948 68.2494,0.2900652 83.45159,-43.1447398 83.45159,-97.4381948 l 0,-30.404387 z m -58.63689,-4.34344 c 0,-33.51247 -4.79876,-49.81746 -26.40837,-49.80299 -23.77415,-0.0145 -27.88519,16.29052 -27.88519,49.80299 l 0,39.091267 c 0,33.512473 4.11104,50.502943 27.88519,50.323932 21.60961,0.179011 26.40837,-16.811459 26.40837,-50.323932 l 0,-39.091267 z"
       style="fill:#ffffff;fill-rule:evenodd;stroke:none"
       id="path3280"
       inkscape:connector-curvature="0" />
    <path
       d="m 274.54126,-90.337517 c 21.05292,0 37.89535,-5.71022 37.88628,-31.346003 0.009,-28.20347 -16.83336,-33.098 -37.88628,-33.098 l -11.78956,0 c -21.05302,0 -37.89535,4.89453 -37.78287,33.098 -0.11248,25.635783 16.72985,31.346003 37.78287,31.346003 l 11.78956,0 z m 1.68426,-22.025193 c 12.99486,0 19.31731,-1.80244 19.3117,-9.91938 0.006,-8.93008 -6.31684,-10.47424 -19.3117,-10.47424 l -15.15808,0 c -12.99486,0 -19.58312,1.54416 -19.51374,10.47424 -0.0694,8.11694 6.51888,9.91938 19.51374,9.91938 l 15.15808,0 z"
       style="fill:#ffffff;fill-rule:evenodd;stroke:none"
       id="path3282"
       inkscape:connector-curvature="0" />
    <path
       id="path3284"
       style="fill:#ffffff;fill-rule:evenodd;stroke:none"
       d="m 274.54126,-163.34156 c 21.05292,0 37.89535,-5.71022 37.88628,-31.346 0.009,-28.20347 -16.83336,-33.09801 -37.88628,-33.09801 l -11.78956,0 c -21.05302,0 -37.89535,4.89454 -37.78287,33.09801 -0.11248,25.63578 16.72985,31.346 37.78287,31.346 l 11.78956,0 z m 1.68426,-22.02509 c 12.99486,0 19.31731,-1.80254 19.3117,-9.91948 0.006,-8.93008 -6.31684,-10.47424 -19.3117,-10.47424 l -15.15808,0 c -12.99486,0 -19.58312,1.54416 -19.51374,10.47424 -0.0694,8.11694 6.51888,9.91948 19.51374,9.91948 l 15.15808,0 z"
       inkscape:connector-curvature="0" />
    <path
       id="path3286"
       style="fill:#ffffff;fill-rule:evenodd;stroke:none"
       d="m 1024.4278,-302.64064 c 0,0 -56.46526,0 -56.46526,0 0,0 0,115.10222 0,115.10222 0,0 -15.20219,-36.9196 -58.637,-36.9196 -52.12179,0 -56.1178,43.43481 -56.1178,97.72826 l 0,30.404387 c 0,54.293455 6.16779,97.72826 56.1178,97.72826 45.60647,0 60.80867,-39.091365 60.80867,-39.091365 0,0 0,36.91959423 0,36.91959423 0,0 54.29359,0 54.29359,0 0.535,-96.28037823 0.2053,-205.59097623 0,-301.87175623 z m -56.46526,145.5065 c 0,-6.51521 -18.38476,-21.7283 -34.74783,-21.7173 -13.03052,0 -21.7174,13.03042 -21.7174,34.74782 l 0,58.636898 c 0,19.545631 6.51521,36.050926 21.7174,36.050926 21.60961,0.179011 34.74783,-16.505295 34.74783,-23.020505 0,0 0,-84.697839 0,-84.697839 z"
       sodipodi:nodetypes="cssccccssccccccccc"
       inkscape:connector-curvature="0" />
    <path
       sodipodi:nodetypes="cssccccssccccccccc"
       d="m 195.62497,-302.63871 c 0,0 0,21.68327 0,21.68327 0,0 44.23938,0 44.23938,0 0,0 -14.18997,5.83768 -14.18997,22.5171 0,20.01521 16.69419,21.5498 37.56178,21.5498 l 11.68585,0 c 20.86768,0 37.56187,-2.36851 37.56187,-21.5498 0,-17.51334 -15.02481,-23.35112 -15.02481,-23.35112 0,0 14.19007,0 14.19007,0 0,0 0,-20.84925 0,-20.84925 -37.00528,-0.2054 -79.01869,-0.0789 -116.02417,0 z m 55.92534,21.68327 c -2.50412,0 -8.35128,7.05989 -8.3471,13.34341 0,5.00386 5.00824,8.33976 13.35533,8.33976 l 22.53707,0 c 7.51235,0 13.85609,-2.50198 13.85609,-8.33976 0.0688,-8.29829 -6.34374,-13.34341 -8.84786,-13.34341 0,0 -32.55353,0 -32.55353,0 z"
       style="fill:#ffffff;fill-rule:evenodd;stroke:none"
       id="path3290"
       inkscape:connector-curvature="0" />
    <g
       id="g3042"
       transform="matrix(1.4390655,0,0,1.4390655,-1804.8631,13.168557)"
       style="fill:#ffffff">
      <path
         sodipodi:nodetypes="ccccccccccccc"
         transform="translate(120.48415,-659.30586)"
         inkscape:connector-curvature="0"
         id="path3014"
         d="m 1628,685 7.4111,0 c 0,9.80138 -3.9686,13.17432 -11.9129,13.17432 C 1617.2001,698.17432 1612,694.50064 1612,687 l 0,-14 c 0,-6.34587 5.2119,-11.04476 12.146,-11.04476 7.1061,0 10.9541,4.27936 10.9541,12.01414 l -7.3616,0 c 0,-2.74658 -1.0338,-4.947 -3.8869,-4.947 -2.0277,0 -3.8575,1.49349 -3.8575,3.85748 l 0,14.57597 c 0,3.07111 2.1534,4.07833 4.0783,4.07833 2.8211,0 3.9276,-2.26795 3.9276,-6.53416 z"
         style="fill:#ffffff;stroke:none" />
      <path
         sodipodi:nodetypes="ccccccccccccc"
         transform="translate(120.48415,-659.30586)"
         inkscape:connector-curvature="0"
         id="path3016"
         d="m 1645,663 0.053,34 7.447,0 0,-14.5 9.5,0 0,14.5 7.5,0 0,-34 -7.5,0 0,13 -9.5,0 0,-13 z"
         style="fill:#ffffff;stroke:none" />
      <path
         id="path3018"
         transform="translate(120.48415,-659.30586)"
         d="m 1688.1875,663 -10,34 7.875,0 1.6875,-6.5 10,0 1.6562,6.5 7.5938,0 -9.5312,-34 -9.2813,0 z m 4.5313,6.75 3.2812,14.25 -6.8125,0 3.5313,-14.25 z"
         style="fill:#ffffff;stroke:none"
         inkscape:connector-curvature="0" />
      <path
         sodipodi:nodetypes="ccccccccccc"
         transform="translate(120.48415,-659.30586)"
         inkscape:connector-curvature="0"
         id="path3022"
         d="m 1723,697 -7,0 0,-34 7.2344,0 10.2656,18.61615 0,-18.61615 7,0 0,34 -6.4111,0 L 1723,676.05889 z"
         style="fill:#ffffff;stroke:none" />
      <path
         style="fill:#ffffff;stroke:none"
         d="m 1880.3376,37.69414 -7,0 0,-34 7.2344,0 10.2656,18.61615 0,-18.61615 7,0 0,34 -6.4111,0 -11.0889,-20.94111 z"
         id="path3024"
         inkscape:connector-curvature="0"
         sodipodi:nodetypes="ccccccccccc" />
      <path
         sodipodi:nodetypes="ccccccccccccc"
         transform="translate(120.48415,-659.30586)"
         inkscape:connector-curvature="0"
         id="path3026"
         d="m 1813,697 -24,0 0,-34 23,0 0,6.5 -15,0 0,7 10.5,0 0,6 -10.5,0 0,8 16,0 z"
         style="fill:#ffffff;stroke:none" />
      <path
         sodipodi:nodetypes="ccccccc"
         transform="translate(120.48415,-659.30586)"
         inkscape:connector-curvature="0"
         id="path3028"
         d="m 1823,663 8,0 0,27.5 14.7,0 0,6.5 -22.7,0 z"
         style="fill:#ffffff;stroke:none" />
    </g>
  </g>
</svg>
